# xmcd
#
# Track frame offsets: 
#        150
#        29237
#        48941
#        67580
#        88937
#        102004
#        127194
#        143162
#        158415
#        179446
#        191665
#        220109
#        238503
#        254413
#
# Disc length: 3729 seconds
#
# Revision: 0
# Processed by: cddbd v1.5.2PL0 Copyright (c) Steve Scherf et al.
# Submitted via: ExactAudioCopy v1.3
#
DISCID=c30e8f0e
DTITLE=Alan Jackson - The Bluegrass Album
DYEAR=2013
DGENRE=Bluegrass
TTITLE0=Long Hard Road
TTITLE1=Mary
TTITLE2=Wild And Blue
TTITLE3=Appalachian Mountain Girl
TTITLE4=Ain't Got Trouble Now
TTITLE5=Blue Ridge Mountain Song
TTITLE6=Tie Me Down
TTITLE7=There Is A Time
TTITLE8=Blue Side Of Heaven
TTITLE9=Let's Get Back To Me And You
TTITLE10=Way Beyond The Blue
TTITLE11=Knew All Along
TTITLE12=Blacktop
TTITLE13=Blue Moon Of Kentucky
EXTD=
EXTT0=
EXTT1=
EXTT2=
EXTT3=
EXTT4=
EXTT5=
EXTT6=
EXTT7=
EXTT8=
EXTT9=
EXTT10=
EXTT11=
EXTT12=
EXTT13=
PLAYORDER=
